<?xml version="1.0" encoding="utf-8"?>
<!-- Generator: Adobe Illustrator 23.0.2, SVG Export Plug-In . SVG Version: 6.00 Build 0)  -->
<svg version="1.1" id="Layer_1" xmlns="http://www.w3.org/2000/svg" xmlns:xlink="http://www.w3.org/1999/xlink" x="0px" y="0px"
	 viewBox="0 0 20 20" style="enable-background:new 0 0 20 20;" xml:space="preserve">
<style type="text/css">
	.st0{fill:#561D29;}
	.st1{fill:#B2364B;}
</style>
<g>
	<path class="st0" d="M4.35,13.05c0-0.21,0.07-0.39,0.21-0.52c0.14-0.13,0.32-0.2,0.55-0.2c0.23,0,0.41,0.07,0.55,0.2
		c0.14,0.13,0.21,0.3,0.21,0.52c0,0.21-0.07,0.37-0.21,0.5c-0.14,0.13-0.32,0.19-0.55,0.19c-0.22,0-0.41-0.06-0.55-0.19
		C4.42,13.42,4.35,13.26,4.35,13.05z"/>
	<path class="st1" d="M6.72,13.06c0-0.19,0.07-0.36,0.21-0.51c0.14-0.14,0.32-0.21,0.54-0.21c0.24,0,0.42,0.07,0.55,0.19
		c0.13,0.13,0.19,0.29,0.19,0.47c0,0.11-0.04,0.22-0.11,0.35c-0.07,0.12-0.17,0.21-0.29,0.27l0.02,0.02
		c0.05,0.06,0.15,0.09,0.31,0.09c0.06,0,0.1,0,0.14-0.01c0.04-0.01,0.09-0.02,0.16-0.04c0.06-0.02,0.12-0.06,0.16-0.12
		c0.04-0.06,0.09-0.13,0.13-0.22c0.04-0.09,0.07-0.21,0.1-0.36c0.02-0.15,0.03-0.32,0.03-0.52V5.83L7.84,5.78V5.56h3.18v0.22
		l-0.81,0.05v5.6c0,0.43-0.05,0.82-0.16,1.14c-0.11,0.33-0.24,0.58-0.39,0.75c-0.15,0.18-0.34,0.32-0.55,0.43
		c-0.21,0.11-0.4,0.18-0.56,0.21c-0.16,0.03-0.33,0.04-0.5,0.04c-0.38,0-0.69-0.08-0.95-0.25C6.85,13.59,6.72,13.36,6.72,13.06z"/>
	<path class="st1" d="M13.18,7.42c-0.25,0-0.48,0.03-0.67,0.08c-0.19,0.06-0.35,0.13-0.48,0.23c-0.13,0.1-0.23,0.22-0.29,0.36
		c-0.07,0.14-0.1,0.3-0.1,0.47c0,0.12,0.02,0.24,0.05,0.36s0.11,0.24,0.23,0.36c0.12,0.12,0.28,0.25,0.5,0.38
		c0.22,0.13,0.52,0.27,0.89,0.42c0.43,0.18,0.79,0.35,1.09,0.51c0.3,0.16,0.54,0.33,0.72,0.51c0.19,0.18,0.32,0.38,0.4,0.6
		c0.08,0.22,0.12,0.49,0.12,0.8c0,0.23-0.05,0.47-0.15,0.7c-0.1,0.23-0.26,0.44-0.46,0.63c-0.21,0.19-0.46,0.34-0.77,0.45
		c-0.31,0.12-0.68,0.17-1.09,0.17c-0.46,0-0.85-0.04-1.17-0.12c-0.32-0.08-0.57-0.18-0.76-0.31c-0.19-0.13-0.33-0.27-0.41-0.43
		c-0.08-0.16-0.13-0.32-0.13-0.48c0-0.11,0.02-0.21,0.05-0.3c0.04-0.09,0.09-0.17,0.16-0.24c0.07-0.07,0.15-0.12,0.25-0.17
		c0.1-0.04,0.21-0.06,0.34-0.06c0.12,0,0.22,0.02,0.32,0.06c0.09,0.04,0.17,0.09,0.24,0.15c0.06,0.06,0.12,0.14,0.15,0.22
		c0.04,0.09,0.06,0.18,0.06,0.28c0,0.23-0.07,0.4-0.22,0.52c-0.14,0.12-0.33,0.18-0.56,0.18v0.02c0.02,0.03,0.07,0.06,0.14,0.11
		c0.07,0.05,0.17,0.09,0.3,0.14c0.13,0.05,0.29,0.09,0.47,0.12c0.19,0.03,0.41,0.05,0.67,0.05c0.21,0,0.42-0.03,0.63-0.08
		c0.21-0.05,0.4-0.13,0.56-0.22c0.16-0.1,0.3-0.22,0.4-0.36c0.1-0.14,0.15-0.3,0.15-0.47c0-0.15-0.03-0.29-0.09-0.42
		c-0.06-0.13-0.17-0.26-0.34-0.4c-0.17-0.14-0.39-0.28-0.69-0.43c-0.29-0.15-0.68-0.33-1.15-0.52c-0.35-0.14-0.63-0.29-0.86-0.45
		c-0.22-0.16-0.4-0.34-0.53-0.52c-0.13-0.18-0.22-0.38-0.27-0.57c-0.05-0.2-0.07-0.41-0.07-0.62c0-0.27,0.05-0.52,0.16-0.76
		c0.11-0.24,0.26-0.44,0.46-0.62c0.2-0.18,0.45-0.32,0.74-0.42c0.29-0.1,0.63-0.16,1-0.16c0.36,0,0.68,0.04,0.95,0.12
		c0.27,0.08,0.49,0.18,0.67,0.31c0.18,0.13,0.31,0.28,0.4,0.45c0.09,0.17,0.13,0.35,0.13,0.53c0,0.1-0.02,0.19-0.05,0.28
		C15.24,8.93,15.19,9,15.12,9.07c-0.07,0.07-0.15,0.12-0.25,0.16c-0.1,0.04-0.21,0.06-0.34,0.06c-0.12,0-0.22-0.02-0.32-0.05
		c-0.09-0.04-0.18-0.08-0.24-0.15c-0.07-0.06-0.12-0.13-0.16-0.22c-0.04-0.08-0.06-0.18-0.06-0.28c0-0.11,0.02-0.22,0.06-0.3
		c0.04-0.09,0.1-0.16,0.17-0.22c0.07-0.06,0.16-0.11,0.26-0.14c0.1-0.03,0.2-0.05,0.32-0.05V7.86c-0.02-0.02-0.06-0.06-0.13-0.11
		c-0.06-0.05-0.15-0.1-0.26-0.15c-0.11-0.05-0.25-0.09-0.42-0.13C13.6,7.43,13.4,7.42,13.18,7.42z"/>
</g>
</svg>
