<svg id="Layer_1" data-name="Layer 1" xmlns="http://www.w3.org/2000/svg" viewBox="0 0 147.72 125.51"><defs><style>.cls-1{fill:#561d29;}.cls-2{fill:#b2364b;}</style></defs><title>logo2</title><path class="cls-1" d="M15.35,140.45a9.82,9.82,0,0,1,2.77-7.29,9.67,9.67,0,0,1,7.14-2.77,9.61,9.61,0,0,1,7.21,2.77,10,10,0,0,1,2.7,7.29,9.43,9.43,0,0,1-2.7,7,9.82,9.82,0,0,1-7.21,2.66,9.78,9.78,0,0,1-7.14-2.7A9.29,9.29,0,0,1,15.35,140.45Z" transform="translate(-15.35 -34.56)"/><path class="cls-2" d="M46.35,140.58a10.29,10.29,0,0,1,2.76-7.16,9.14,9.14,0,0,1,7.09-3,9.3,9.3,0,0,1,7.16,2.75,9.49,9.49,0,0,1,2.54,6.68,10.36,10.36,0,0,1-1.41,4.89,9,9,0,0,1-3.82,3.86l.21.27c.6.87,1.95,1.31,4.06,1.31a9.13,9.13,0,0,0,3.93-.76A4.67,4.67,0,0,0,71,147.74a15.7,15.7,0,0,0,1.69-3.06,20,20,0,0,0,1.28-5.06,54.61,54.61,0,0,0,.44-7.36V38.41L61,37.72V34.56H102.6v3.16L92,38.41v79.2a55.7,55.7,0,0,1-2.1,16.13,31.14,31.14,0,0,1-5.13,10.63,24.74,24.74,0,0,1-7.13,6,25.17,25.17,0,0,1-7.29,2.93,34.52,34.52,0,0,1-6.51.62,21.3,21.3,0,0,1-12.43-3.51A11.33,11.33,0,0,1,46.35,140.58Z" transform="translate(-15.35 -34.56)"/><path class="cls-2" d="M130.78,60.79A29.33,29.33,0,0,0,122.07,62a18.11,18.11,0,0,0-6.3,3.3A13.46,13.46,0,0,0,112,70.39,16.64,16.64,0,0,0,110.68,77a18.63,18.63,0,0,0,.68,5,13.24,13.24,0,0,0,3,5.06,31.43,31.43,0,0,0,6.58,5.34,85.38,85.38,0,0,0,11.6,5.92q8.4,3.85,14.22,7.23a42.76,42.76,0,0,1,9.46,7.16,22.76,22.76,0,0,1,5.27,8.5,34.78,34.78,0,0,1,1.62,11.26,26.37,26.37,0,0,1-2,9.91,25.68,25.68,0,0,1-6,8.88,30.65,30.65,0,0,1-10.12,6.37,38.25,38.25,0,0,1-14.29,2.44,59.28,59.28,0,0,1-15.28-1.68,31.27,31.27,0,0,1-10-4.37,16.52,16.52,0,0,1-5.41-6.1,15.57,15.57,0,0,1-1.65-6.85,12.68,12.68,0,0,1,.69-4.23,10,10,0,0,1,2-3.44,9.56,9.56,0,0,1,3.31-2.34,10.79,10.79,0,0,1,4.44-.87,10.42,10.42,0,0,1,4.13.8,9.19,9.19,0,0,1,3.13,2.13,9.77,9.77,0,0,1,2,3.17,10.64,10.64,0,0,1,.72,4q0,4.89-2.82,7.36a10.64,10.64,0,0,1-7.3,2.48v.28a11,11,0,0,0,1.89,1.53,19.32,19.32,0,0,0,3.93,2,37.79,37.79,0,0,0,6.19,1.71,45.94,45.94,0,0,0,8.71.73,31.72,31.72,0,0,0,8.23-1.1,25.83,25.83,0,0,0,7.3-3.18,18,18,0,0,0,5.2-5,11.72,11.72,0,0,0,2-6.69,15,15,0,0,0-1.17-5.93,16.45,16.45,0,0,0-4.4-5.62,54.48,54.48,0,0,0-9-6.14q-5.75-3.27-15-7.41a48,48,0,0,1-11.19-6.37,31.26,31.26,0,0,1-6.89-7.37A25.24,25.24,0,0,1,101,93.32a38.76,38.76,0,0,1-1-8.71,27.71,27.71,0,0,1,2.07-10.67,25.33,25.33,0,0,1,6-8.78,28.61,28.61,0,0,1,9.67-6A36.46,36.46,0,0,1,130.92,57a41.45,41.45,0,0,1,12.35,1.65A26.81,26.81,0,0,1,152,63a17.87,17.87,0,0,1,5.17,6.34,17.43,17.43,0,0,1,1.72,7.54,11.44,11.44,0,0,1-.69,3.95,9.5,9.5,0,0,1-2,3.31A9.74,9.74,0,0,1,153,86.43a10.65,10.65,0,0,1-4.41.86,10.77,10.77,0,0,1-4.13-.76,9.74,9.74,0,0,1-3.2-2.06,8.93,8.93,0,0,1-2.07-3.1,10.4,10.4,0,0,1-.72-3.92,10.72,10.72,0,0,1,.83-4.31A9.08,9.08,0,0,1,141.48,70a9.63,9.63,0,0,1,3.34-1.93A12.74,12.74,0,0,1,149,67.4v-.28a18.13,18.13,0,0,0-1.66-1.55,15.85,15.85,0,0,0-3.44-2.13,27.9,27.9,0,0,0-5.44-1.86A32.33,32.33,0,0,0,130.78,60.79Z" transform="translate(-15.35 -34.56)"/></svg>