<svg id="Layer_1" data-name="Layer 1" xmlns="http://www.w3.org/2000/svg" viewBox="0 0 460.55 391.31"><defs><style>.cls-1{fill:#561d29;}.cls-2{fill:#b2364b;}</style></defs><title>logo</title><path class="cls-1" d="M19.72,378.21q0-14.1,8.62-22.72t22.27-8.62q14.1,0,22.5,8.62t8.39,22.72q0,13.65-8.39,21.93t-22.5,8.29q-13.65,0-22.27-8.4T19.72,378.21Z" transform="translate(-19.72 -48.06)"/><path class="cls-2" d="M116.38,378.63A32.12,32.12,0,0,1,125,356.3q8.6-9.44,22.11-9.44,14.38,0,22.33,8.59a29.56,29.56,0,0,1,7.94,20.82q0,7.08-4.4,15.24a28.06,28.06,0,0,1-11.92,12l.65.86q2.79,4.08,12.66,4.08a28.21,28.21,0,0,0,12.24-2.36,14.67,14.67,0,0,0,6.54-5.15,49.69,49.69,0,0,0,5.26-9.55,62.29,62.29,0,0,0,4-15.77,167.61,167.61,0,0,0,1.39-22.95V60.09L162.1,57.94V48.06H291.75v9.88l-33.06,2.15V307q0,28.75-6.54,50.31t-16,33.14a77.61,77.61,0,0,1-22.21,18.77q-12.78,7.18-22.76,9.12a106.24,106.24,0,0,1-20.28,1.93q-23,0-38.75-10.94T116.38,378.63Z" transform="translate(-19.72 -48.06)"/><path class="cls-2" d="M379.6,129.85a91.12,91.12,0,0,0-27.15,3.65,56.1,56.1,0,0,0-19.64,10.3,42.05,42.05,0,0,0-11.91,16,51.83,51.83,0,0,0-4,20.5A58.28,58.28,0,0,0,319.07,196q2.15,7.72,9.23,15.78t20.5,16.63Q362.21,237,385,246.83q26.19,12,44.32,22.54t29.52,22.33a71.22,71.22,0,0,1,16.42,26.5q5,14.71,5,35.1a82.2,82.2,0,0,1-6.23,30.91,80.36,80.36,0,0,1-18.78,27.69q-12.56,12.24-31.56,19.86t-44.54,7.62q-28.34,0-47.65-5.26t-31-13.63q-11.7-8.39-16.85-19a48.59,48.59,0,0,1-5.15-21.36,39.64,39.64,0,0,1,2.15-13.2A31.12,31.12,0,0,1,287,356.2a29.87,29.87,0,0,1,10.3-7.3,34.15,34.15,0,0,1,13.85-2.68A32.68,32.68,0,0,1,324,348.68a29,29,0,0,1,9.77,6.66,30.57,30.57,0,0,1,6.22,9.87,33.31,33.31,0,0,1,2.25,12.35q0,15.24-8.8,23t-22.75,7.73v.87a34.31,34.31,0,0,0,5.9,4.78A60.58,60.58,0,0,0,328.84,420a116.88,116.88,0,0,0,19.32,5.32,141,141,0,0,0,27.15,2.28A98,98,0,0,0,401,424.13a79.78,79.78,0,0,0,22.75-9.89,55.51,55.51,0,0,0,16.21-15.7,36.46,36.46,0,0,0,6.22-20.85,46.85,46.85,0,0,0-3.64-18.49q-3.66-8.61-13.74-17.52t-28-19.14q-17.92-10.21-46.69-23.12-21.26-9-34.88-19.85a97.13,97.13,0,0,1-21.47-23,78.6,78.6,0,0,1-10.84-25.33,122.12,122.12,0,0,1-3-27.15,86.68,86.68,0,0,1,6.44-33.27A79,79,0,0,1,309,143.48a89.22,89.22,0,0,1,30.16-18.57Q357.06,118,380,118q22.11,0,38.53,5.15t27.16,13.63a55.55,55.55,0,0,1,16.09,19.75,54,54,0,0,1,5.37,23.51A35.88,35.88,0,0,1,465,192.42a30,30,0,0,1-6.22,10.3,30.43,30.43,0,0,1-10.09,7.09A33.39,33.39,0,0,1,435,212.49a34,34,0,0,1-12.88-2.36,30.85,30.85,0,0,1-10-6.44,28,28,0,0,1-6.44-9.66,32.44,32.44,0,0,1-2.25-12.24A33.17,33.17,0,0,1,406,168.38a28.31,28.31,0,0,1,7-9.88,29.52,29.52,0,0,1,10.41-6,39.83,39.83,0,0,1,12.88-2v-.85a54.86,54.86,0,0,0-5.15-4.84,50.51,50.51,0,0,0-10.73-6.65,86.43,86.43,0,0,0-17-5.8A101.56,101.56,0,0,0,379.6,129.85Z" transform="translate(-19.72 -48.06)"/></svg>