<?xml version="1.0" encoding="utf-8"?>
<!-- Generator: Adobe Illustrator 23.0.2, SVG Export Plug-In . SVG Version: 6.00 Build 0)  -->
<svg version="1.1" id="Layer_1" xmlns="http://www.w3.org/2000/svg" xmlns:xlink="http://www.w3.org/1999/xlink" x="0px" y="0px"
	 viewBox="0 0 50 15" style="enable-background:new 0 0 50 15;" xml:space="preserve">
<style type="text/css">
	.st0{fill:#B2364B;}
	.st1{fill-opacity:0;stroke:#000000;stroke-opacity:0;}
</style>
<g>
	<path id="a" class="st0" d="M49.6,10.1l-8.5-7.5l-8.3,7.3l-8.3-7.3l-8.3,7.3L8.2,2.7l-8.1,7.4V8.8l8-7.4l8.2,7.2l8.2-7.3l8.2,7.3
		l8.3-7.3l8.5,7.5C49.6,8.8,49.6,10.1,49.6,10.1z"/>
</g>
<g>
	<path class="st1" d="M49.6,10.1l-8.5-7.5l-8.3,7.3l-8.3-7.3l-8.3,7.3L8.2,2.7l-8.1,7.4V8.8l8-7.4l8.2,7.2l8.2-7.3l8.2,7.3l8.3-7.3
		l8.5,7.5C49.6,8.8,49.6,10.1,49.6,10.1z"/>
</g>
<g>
	<path id="b" class="st0" d="M49.6,13.5L41.1,6l-8.3,7.3L24.6,6l-8.3,7.3L8.2,6.1l-8.1,7.4v-1.4l8-7.4l8.2,7.2l8.2-7.3l8.2,7.3
		l8.3-7.3l8.5,7.5C49.6,12.1,49.6,13.5,49.6,13.5z"/>
</g>
<g>
	<path class="st1" d="M49.6,13.5L41.1,6l-8.3,7.3L24.6,6l-8.3,7.3L8.2,6.1l-8.1,7.4v-1.4l8-7.4l8.2,7.2l8.2-7.3l8.2,7.3l8.3-7.3
		l8.5,7.5C49.6,12.1,49.6,13.5,49.6,13.5z"/>
</g>
</svg>
